<?xml version="1.0" encoding="UTF-8" standalone="no"?>
<svg
  id="missing-logo"
	width="40"
	height="40"
	viewBox="0 0 10.583331 10.583331"
	xmlns="http://www.w3.org/2000/svg"
	xmlns:svg="http://www.w3.org/2000/svg"
>
	<style>
		.tab    { fill: #979b9d } /* --gray-6   */
		.alt    { fill: #d1d6d8 } /* --gray-4   */
		.purple { fill: #be4bdb } /* --purple-6 */
		.blue   { fill: #228be6 } /* --blue-6   */
		.green  { fill: #40c057 } /* --green-6  */
		.orange { fill: #fab005 } /* --yellow-6 */
		.red    { fill: #fa5252 } /* --red-6    */
	</style>

	<g transform="translate(-7.2998105,-17.99167)">
		<path
			class="tab key"
			d="m 7.7979727,17.991668 a 0.49803921,0.49803921 0 0 0 -0.498161,0.49816 v 0.82424 h 2.38125 c 0.4321083,0 0.7932333,0.363192 0.7932333,0.7953 v 1.056266 h 0.794784 c 0.432107,0 0.792716,0.363193 0.792716,0.7953 v 1.057817 h 2.646351 v -4.528923 a 0.49803921,0.49803921 0 0 0 -0.497645,-0.49816 z m 0.03152,2.38125 v 0.265617 h 1.588016 v -0.265617 z m 0,1.851566 v 0.265617 h 3.1739663 v -0.265617 z"/>
		<path
			class="alt key"
			d="m 13.599169,23.536549 c 0.0327,0.08609 0.05064,0.17901 0.05064,0.275435 v 1.05885 h 0.793234 c 0.432404,0 0.794783,0.36238 0.794783,0.794784 v 1.056783 h 0.792716 c 0.432108,0 0.795302,0.362675 0.795301,0.794783 v 1.057817 h 0.528133 a 0.52916687,0.52916687 0 0 0 0.529169,-0.529167 v -3.96875 A 0.54048313,0.54048313 0 0 0 17.34261,23.536549 Z m -2.077392,0.541569 v 0.26355 h 1.069702 v -0.26355 z m 0,1.851566 v 0.26355 h 2.657202 v -0.26355 z m 0,1.85105 v 0.266134 h 4.245219 v -0.266134 z"/>
		<path
			class="purple stripe"
			d="m 7.2999997,19.84375 h 2.381249 a 0.26458449,0.26458449 0 0 1 0.264585,0.264584 v 1.058334 h -2.645834 z"/>
		<path
			class="blue stripe"
			d="m 7.2999997,21.695835 h 3.9687513 a 0.26458327,0.26458327 0 0 1 0.264583,0.264583 v 1.058336 H 7.2999997 Z"/>
		<path
			class="green stripe"
			d="m 7.2999997,23.547918 h 5.5562513 a 0.26458348,0.26458348 0 0 1 0.264583,0.264583 v 1.058336 H 7.5645857 a 0.26458525,0.26458525 0 0 1 -0.264586,-0.264586 z"/>
		<path
			class="orange stripe"
			d="m 10.475001,25.400002 h 3.968214 a 0.26511968,0.26511968 0 0 1 0.265119,0.265119 v 1.0578 h -4.233333 z"/>
		<path
			class="red stripe"
			d="m 10.475001,27.252084 h 5.556249 a 0.26458343,0.26458343 0 0 1 0.264584,0.264584 v 1.058333 h -5.291667 a 0.52916667,0.52916667 0 0 1 -0.529166,-0.529166 z"/>
	</g>
</svg>
