<?xml version="1.0" encoding="UTF-8" standalone="no"?>
<svg
  id="missing-logo"
	width="48"
	height="48"
	viewBox="4 4 44 44"
	xmlns="http://www.w3.org/2000/svg"
	xmlns:svg="http://www.w3.org/2000/svg"
>
  <view id="uncropped" viewBox="0 0 48 48"/>
	<style>
		.tab    { fill: #979b9d } /* --gray-6   */
		.alt    { fill: #d1d6d8 } /* --gray-4   */
		.purple { fill: #be4bdb } /* --purple-6 */
		.blue   { fill: #228be6 } /* --blue-6   */
		.green  { fill: #40c057 } /* --green-6  */
		.orange { fill: #fab005 } /* --yellow-6 */
		.red    { fill: #fa5252 } /* --red-6    */
	</style>

  <path
		class="tab key"
		d="
		  M 6,4
			a 2,2 0 0 0 -2,2
			v 3 h 9
			a 3,3 0 0 1 3,3
			v 4 h 3
			a 3,3 0 0 1 3,3
			v 4 h 10 v -17
			a 2,2 0 0 0 -2,-2
			z"/>

  <!-- 27.82842 = 25 + 3 * cos(arcsin(1/3)) -->
	<path
		class="alt key"
		d="
		  M 27.82842,25
			A 3,3 0 0 1 28,26
			v 4 h 3
			a 3,3 0 0 1 3,3
			v 4 h 3
			a 3,3 0 0 1 3,3
			v 4 h 2
			a 2,2 0 0 0 2,-2
			v -15
			a 2,2 0 0 0 -2,-2
			z"/>
	<path
		class="purple stripe"
		d="M 4,11 h 9 a 1,1 0 0 1 1,1 v 4 h -10 z"/>
	<path
		class="blue stripe"
		d="M 4,18 h 15 a 1,1 0 0 1 1,1 v 4 h -16 z"/>
	<path
		class="green stripe"
		d="M 4,25 h 21 a 1,1 0 0 1 1,1 v 4 h -21 a 1,1 0 0 1 -1,-1 z"/>
	<path
		class="orange stripe"
		d="M 16,32 h 15 a 1,1 0 0 1 1,1 v 4 h -16 z"/>
	<path
		class="red stripe"
		d="M 16,39 h 21 a 1,1 0 0 1 1,1 v 4 h -20 a 2,2 0 0 1 -2,-2 z"/>
</svg>
